<svg width="32" height="32" viewBox="0 0 32 32" fill="none" xmlns="http://www.w3.org/2000/svg">
<path d="M9.4529 8.9979C9.82831 8.62351 10.4362 8.62433 10.8105 8.99974L23.0127 21.2351C23.3871 21.6106 23.3863 22.2184 23.0109 22.5928L22.5577 23.0447C22.1823 23.4191 21.5745 23.4183 21.2001 23.0429L8.99789 10.8075C8.6235 10.4321 8.62433 9.82423 8.99974 9.44983L9.4529 8.9979Z" fill="white"/>
<path d="M9.46456 23.1727C9.84383 23.5432 10.4516 23.5361 10.8221 23.1568L22.8968 10.7956C23.2673 10.4163 23.2602 9.80851 22.8809 9.43803L22.4231 8.99082C22.0438 8.62033 21.436 8.62746 21.0656 9.00673L8.99082 21.3679C8.62034 21.7472 8.62746 22.355 9.00674 22.7255L9.46456 23.1727Z" fill="white"/>
</svg>
